<svg xmlns="http://www.w3.org/2000/svg" xmlns:xlink="http://www.w3.org/1999/xlink" width="1830px" height="870px" viewBox="0 0 1830 870" preserveAspectRatio="xMidYMid meet">
  <defs id="svgEditorDefs">
    <marker id="circle4" markerHeight="4" markerUnits="strokeWidth" markerWidth="4" orient="auto" refX="0" refY="0" viewBox="-5 -5 10 10">
      <circle cx="0" cy="0" r="5" style="fill:white;stroke:none;" />
    </marker>
    <marker id="arrow20-16-right" markerHeight="16" markerUnits="strokeWidth" markerWidth="20" orient="auto" refX="-3" refY="0" viewBox="-15 -5 20 20">
      <path d="M -15 -5 L 0 0 L -15 5 z" fill="white" />
    </marker>
    <marker id="arrow10-8-right" markerHeight="8" markerUnits="strokeWidth" markerWidth="10" orient="auto" refX="-3" refY="0" viewBox="-15 -5 20 20">
      <path d="M -15 -5 L 0 0 L -15 5 z" fill="white" />
    </marker>
    <marker id="arrow8-6-right" markerHeight="6" markerUnits="strokeWidth" markerWidth="8" orient="auto" refX="-3" refY="0" viewBox="-15 -5 20 20">
      <path d="M -15 -5 L 0 0 L -15 5 z" fill="white" />
    </marker>
    <marker id="arrow10-8-left" markerHeight="8" markerUnits="strokeWidth" markerWidth="10" orient="auto" refX="3" refY="0" viewBox="0 -5 20 20">
      <path d="M 15 -5 L 0 0 L 15 5 z" fill="white" />
    </marker>
  </defs>
  <line id="left1" x1="240" y1="220" x2="240" y2="170" stroke="white" style="stroke-width: 2px; fill: none; marker-start: url(&quot;#circle4&quot;);" />
  <line id="straight" x1="120" y1="220" x2="120" y2="120" stroke="white" style="stroke-width: 2px; fill: none; marker-start: url(&quot;#circle4&quot;); marker-end: url(&quot;#arrow10-8-right&quot;);" />
  <line id="right1" x1="480" y1="220" x2="480" y2="170" stroke="white" style="stroke-width: 2px; fill: none; marker-start: url(&quot;#circle4&quot;);" />
  <line id="middle" x1="360" y1="220" x2="360" y2="145" stroke="white" style="stroke-width: 2px; fill: none; marker-start: url(&quot;#circle4&quot;); marker-end: url(&quot;#arrow10-8-right&quot;);" />
  <line id="e383_line" x1="330" y1="120" x2="390" y2="120" stroke="white" style="stroke-width: 2px; fill: none;" />
  <line id="e424_line" x1="330" y1="120" x2="288" y2="78" stroke="white" style="stroke-width: 2px; fill: none;" />
  <line id="e438_line" x1="390" y1="120" x2="432" y2="78" stroke="white" style="stroke-width: 2px; fill: none;" />
  <line id="left2" x1="240" y1="170" x2="290" y2="120" stroke="white" style="stroke-width: 2px; fill: none; marker-end: url(&quot;#arrow10-8-right&quot;);" />
  <line id="right2" x1="480" y1="170" x2="430" y2="120" stroke="white" style="stroke-width: 2px; fill: none; marker-end: url(&quot;#arrow10-8-right&quot;);" />
  <line id="e793_line" x1="310" y1="100" x2="300" y2="110" stroke="white" style="stroke-width: 2px; fill: none;" />
  <line id="e808_line" x1="410" y1="100" x2="420" y2="110" stroke="white" style="stroke-width: 2px; fill: none;" />
  <line id="e822_line" x1="360" y1="120" x2="360" y2="130" stroke="white" style="stroke-width: 2px; fill: none;" />
  <line id="e849_line" x1="330" y1="120" x2="320" y2="143" stroke="white" style="stroke-width: 2px; fill: none;" />
  <line id="e863_line" x1="390" y1="120" x2="400" y2="143" stroke="white" style="stroke-width: 2px; fill: none;" />
</svg>
